# xmcd
#
# Track frame offsets:
#	150
#	16560
#	33636
#	53762
#	76731
#	96837
#	115180
#	125088
#	145107
#	164881
#	179935
#
# Disc length: 2635 seconds
#
# Revision: 0
# Processed by: cddbd v1.5.2PL0 Copyright (c) Steve Scherf et al.
# Submitted via: dBpowerAMP V4.0
#
DISCID=950a490b
DTITLE=Oli Brown - Open Road
DYEAR=2008
DGENRE=Blues
TTITLE0=Psycho
TTITLE1=Open Road
TTITLE2=Stone Cold
TTITLE3=Cant Get Next To You
TTITLE4=Shades Of Grey
TTITLE5=All The Kings Horses
TTITLE6=Black Betty
TTITLE7=Missing You
TTITLE8=New Groove
TTITLE9=Played By The Devil
TTITLE10=Complicated
EXTD=
EXTT0=
EXTT1=
EXTT2=
EXTT3=
EXTT4=
EXTT5=
EXTT6=
EXTT7=
EXTT8=
EXTT9=
EXTT10=
PLAYORDER=
